<svg width="284" height="121" viewBox="0 0 284 121" fill="none" xmlns="http://www.w3.org/2000/svg">
<path d="M19.1392 119.97H15.6513C5.50491 119.97 0.431696 115.214 0.431696 105.702V68.9213H15.6513V104.592C15.6513 106.336 16.1269 107.129 17.2367 107.129C18.3465 107.129 18.9806 106.336 18.9806 104.592V73.9945C18.9806 70.8237 18.6635 69.7139 16.2855 67.3359L7.88297 59.0919C2.80976 54.1772 0.907309 49.2626 0.907309 41.8113V15.0184C0.907309 6.14028 5.02929 0.432923 16.2855 0.432923H19.7733C31.0295 0.432923 34.3588 6.14028 34.3588 13.7501V45.4577H19.6148V14.3842C19.6148 13.1159 19.1392 12.4818 18.0294 12.4818C16.9196 12.4818 16.444 13.1159 16.444 14.3842V41.1771C16.444 44.1894 16.9196 45.1406 18.8221 47.2016L27.066 55.4455C32.9319 60.9944 34.9929 65.1163 34.9929 73.3603V103.8C34.9929 113.946 29.9197 119.97 19.1392 119.97ZM37.4453 1.22561H53.1406L59.165 69.2383L58.8479 1.22561H71.5309V119.178H57.104L49.8113 43.3967L49.9698 119.178H37.4453V1.22561ZM91.4151 81.7628L89.5126 31.9819L87.6101 81.7628H91.4151ZM92.8419 119.178L91.8907 95.2385H86.976L86.0248 119.178H72.7076L80.1589 1.22561H99.8176L107.744 119.178H92.8419ZM131.485 68.2871H124.193V119.178H108.815V1.22561H131.327C137.668 1.22561 142.266 4.71344 142.266 13.1159V56.3968C142.266 64.4822 137.668 68.2871 131.485 68.2871ZM124.193 13.2745V55.7626H125.302C126.571 55.7626 127.205 54.9699 127.205 53.226V15.6525C127.205 14.2257 127.046 13.2745 125.302 13.2745H124.193ZM162.814 119.97H159.326C149.18 119.97 144.107 115.214 144.107 105.702V68.9213H159.326V104.592C159.326 106.336 159.802 107.129 160.912 107.129C162.021 107.129 162.655 106.336 162.655 104.592V73.9945C162.655 70.8237 162.338 69.7139 159.96 67.3359L151.558 59.0919C146.485 54.1772 144.582 49.2626 144.582 41.8113V15.0184C144.582 6.14028 148.704 0.432923 159.96 0.432923H163.448C174.704 0.432923 178.034 6.14028 178.034 13.7501V45.4577H163.29V14.3842C163.29 13.1159 162.814 12.4818 161.704 12.4818C160.594 12.4818 160.119 13.1159 160.119 14.3842V41.1771C160.119 44.1894 160.594 45.1406 162.497 47.2016L170.741 55.4455C176.607 60.9944 178.668 65.1163 178.668 73.3603V103.8C178.668 113.946 173.595 119.97 162.814 119.97ZM180.962 119.178V1.22561H196.498V49.4211H199.669V1.22561H215.047V119.178H199.669V65.4334H196.498V119.178H180.962ZM252.691 18.3477V102.373C252.691 113.787 246.667 119.97 236.362 119.97H234.142C223.362 119.97 217.654 113.629 217.654 102.373V18.3477C217.654 7.09151 222.728 0.432923 234.142 0.432923H236.362C247.777 0.432923 252.691 7.40858 252.691 18.3477ZM236.996 103.641V16.7623C236.996 15.0184 236.362 14.0672 235.252 14.0672C234.142 14.0672 233.508 15.0184 233.508 16.7623V103.641C233.508 105.385 234.142 106.178 235.252 106.178C236.362 106.178 236.996 105.385 236.996 103.641ZM261.157 119.178V15.3355H254.34V1.22561H283.352V15.3355H276.377V119.178H261.157Z" fill="url(#paint0_linear_1819_526)" style=""/>
<path d="M19.1392 119.97H15.6513C5.50491 119.97 0.431696 115.214 0.431696 105.702V68.9213H15.6513V104.592C15.6513 106.336 16.1269 107.129 17.2367 107.129C18.3465 107.129 18.9806 106.336 18.9806 104.592V73.9945C18.9806 70.8237 18.6635 69.7139 16.2855 67.3359L7.88297 59.0919C2.80976 54.1772 0.907309 49.2626 0.907309 41.8113V15.0184C0.907309 6.14028 5.02929 0.432923 16.2855 0.432923H19.7733C31.0295 0.432923 34.3588 6.14028 34.3588 13.7501V45.4577H19.6148V14.3842C19.6148 13.1159 19.1392 12.4818 18.0294 12.4818C16.9196 12.4818 16.444 13.1159 16.444 14.3842V41.1771C16.444 44.1894 16.9196 45.1406 18.8221 47.2016L27.066 55.4455C32.9319 60.9944 34.9929 65.1163 34.9929 73.3603V103.8C34.9929 113.946 29.9197 119.97 19.1392 119.97ZM37.4453 1.22561H53.1406L59.165 69.2383L58.8479 1.22561H71.5309V119.178H57.104L49.8113 43.3967L49.9698 119.178H37.4453V1.22561ZM91.4151 81.7628L89.5126 31.9819L87.6101 81.7628H91.4151ZM92.8419 119.178L91.8907 95.2385H86.976L86.0248 119.178H72.7076L80.1589 1.22561H99.8176L107.744 119.178H92.8419ZM131.485 68.2871H124.193V119.178H108.815V1.22561H131.327C137.668 1.22561 142.266 4.71344 142.266 13.1159V56.3968C142.266 64.4822 137.668 68.2871 131.485 68.2871ZM124.193 13.2745V55.7626H125.302C126.571 55.7626 127.205 54.9699 127.205 53.226V15.6525C127.205 14.2257 127.046 13.2745 125.302 13.2745H124.193ZM162.814 119.97H159.326C149.18 119.97 144.107 115.214 144.107 105.702V68.9213H159.326V104.592C159.326 106.336 159.802 107.129 160.912 107.129C162.021 107.129 162.655 106.336 162.655 104.592V73.9945C162.655 70.8237 162.338 69.7139 159.96 67.3359L151.558 59.0919C146.485 54.1772 144.582 49.2626 144.582 41.8113V15.0184C144.582 6.14028 148.704 0.432923 159.96 0.432923H163.448C174.704 0.432923 178.034 6.14028 178.034 13.7501V45.4577H163.29V14.3842C163.29 13.1159 162.814 12.4818 161.704 12.4818C160.594 12.4818 160.119 13.1159 160.119 14.3842V41.1771C160.119 44.1894 160.594 45.1406 162.497 47.2016L170.741 55.4455C176.607 60.9944 178.668 65.1163 178.668 73.3603V103.8C178.668 113.946 173.595 119.97 162.814 119.97ZM180.962 119.178V1.22561H196.498V49.4211H199.669V1.22561H215.047V119.178H199.669V65.4334H196.498V119.178H180.962ZM252.691 18.3477V102.373C252.691 113.787 246.667 119.97 236.362 119.97H234.142C223.362 119.97 217.654 113.629 217.654 102.373V18.3477C217.654 7.09151 222.728 0.432923 234.142 0.432923H236.362C247.777 0.432923 252.691 7.40858 252.691 18.3477ZM236.996 103.641V16.7623C236.996 15.0184 236.362 14.0672 235.252 14.0672C234.142 14.0672 233.508 15.0184 233.508 16.7623V103.641C233.508 105.385 234.142 106.178 235.252 106.178C236.362 106.178 236.996 105.385 236.996 103.641ZM261.157 119.178V15.3355H254.34V1.22561H283.352V15.3355H276.377V119.178H261.157Z" fill="url(#paint1_linear_1819_526)" style=""/>
<path d="M0.431696 68.9213V68.4885H-0.00105809V68.9213H0.431696ZM15.6513 68.9213H16.0841V68.4885H15.6513V68.9213ZM16.2855 67.3359L16.5915 67.0299L16.5886 67.027L16.2855 67.3359ZM7.88297 59.0919L8.18605 58.783L8.18408 58.7811L7.88297 59.0919ZM34.3588 45.4577V45.8904H34.7915V45.4577H34.3588ZM19.6148 45.4577H19.182V45.8904H19.6148V45.4577ZM18.8221 47.2016L18.5041 47.4951L18.51 47.5015L18.5161 47.5076L18.8221 47.2016ZM27.066 55.4455L26.7599 55.7517L26.7687 55.7599L27.066 55.4455ZM19.1392 119.97V119.538H15.6513V119.97V120.403H19.1392V119.97ZM15.6513 119.97V119.538C10.6381 119.538 6.95876 118.362 4.53258 116.088C2.11166 113.818 0.864449 110.384 0.864449 105.702H0.431696H-0.00105809C-0.00105809 110.532 1.28834 114.233 3.94062 116.719C6.58766 119.201 10.5181 120.403 15.6513 120.403V119.97ZM0.431696 105.702H0.864449V68.9213H0.431696H-0.00105809V105.702H0.431696ZM0.431696 68.9213V69.354H15.6513V68.9213V68.4885H0.431696V68.9213ZM15.6513 68.9213H15.2186V104.592H15.6513H16.0841V68.9213H15.6513ZM15.6513 104.592H15.2186C15.2186 105.486 15.337 106.221 15.6599 106.742C16.0097 107.307 16.5591 107.562 17.2367 107.562V107.129V106.696C16.8046 106.696 16.5612 106.554 16.3958 106.287C16.2035 105.976 16.0841 105.443 16.0841 104.592H15.6513ZM17.2367 107.129V107.562C17.9079 107.562 18.4858 107.314 18.877 106.766C19.2498 106.244 19.4134 105.504 19.4134 104.592H18.9806H18.5479C18.5479 105.424 18.3944 105.953 18.1727 106.263C17.9694 106.548 17.6752 106.696 17.2367 106.696V107.129ZM18.9806 104.592H19.4134V73.9945H18.9806H18.5479V104.592H18.9806ZM18.9806 73.9945H19.4134C19.4134 72.4055 19.3364 71.264 18.9283 70.2115C18.5186 69.1547 17.7926 68.231 16.5915 67.0299L16.2855 67.3359L15.9795 67.6419C17.1564 68.8188 17.778 69.639 18.1213 70.5244C18.4663 71.4139 18.5479 72.4126 18.5479 73.9945H18.9806ZM16.2855 67.3359L16.5886 67.027L8.18605 58.783L7.88297 59.0919L7.5799 59.4008L15.9824 67.6448L16.2855 67.3359ZM7.88297 59.0919L8.18408 58.7811C5.68146 56.3567 3.97707 53.9486 2.89449 51.2421C1.81105 48.5335 1.34006 45.5003 1.34006 41.8113H0.907309H0.474555C0.474555 45.5735 0.954793 48.7233 2.09089 51.5635C3.22783 54.4059 5.01127 56.9125 7.58186 59.4027L7.88297 59.0919ZM0.907309 41.8113H1.34006V15.0184H0.907309H0.474555V41.8113H0.907309ZM0.907309 15.0184H1.34006C1.34006 10.6385 2.35739 7.12089 4.68736 4.69621C7.0143 2.27468 10.7255 0.865677 16.2855 0.865677V0.432923V0.000169492C10.5893 0.000169492 6.61138 1.44484 4.06329 4.09652C1.51822 6.74504 0.474555 10.5202 0.474555 15.0184H0.907309ZM16.2855 0.432923V0.865677H19.7733V0.432923V0.000169492H16.2855V0.432923ZM19.7733 0.432923V0.865677C25.3336 0.865677 28.8441 2.27474 30.9721 4.5345C33.1044 6.7989 33.926 9.99895 33.926 13.7501H34.3588H34.7915C34.7915 9.89142 33.9486 6.43288 31.6022 3.94115C29.2514 1.44478 25.4692 0.000169492 19.7733 0.000169492V0.432923ZM34.3588 13.7501H33.926V45.4577H34.3588H34.7915V13.7501H34.3588ZM34.3588 45.4577V45.0249H19.6148V45.4577V45.8904H34.3588V45.4577ZM19.6148 45.4577H20.0475V14.3842H19.6148H19.182V45.4577H19.6148ZM19.6148 14.3842H20.0475C20.0475 13.71 19.9237 13.1147 19.5741 12.6845C19.2089 12.235 18.6681 12.049 18.0294 12.049V12.4818V12.9145C18.5005 12.9145 18.7524 13.0457 18.9024 13.2303C19.0681 13.4342 19.182 13.7902 19.182 14.3842H19.6148ZM18.0294 12.4818V12.049C17.3907 12.049 16.8499 12.235 16.4847 12.6845C16.1351 13.1147 16.0113 13.71 16.0113 14.3842H16.444H16.8768C16.8768 13.7902 16.9907 13.4342 17.1564 13.2303C17.3064 13.0457 17.5583 12.9145 18.0294 12.9145V12.4818ZM16.444 14.3842H16.0113V41.1771H16.444H16.8768V14.3842H16.444ZM16.444 41.1771H16.0113C16.0113 42.6998 16.13 43.7588 16.5191 44.7099C16.9072 45.6587 17.5485 46.4599 18.5041 47.4951L18.8221 47.2016L19.1401 46.908C18.1932 45.8823 17.6454 45.1773 17.3202 44.3822C16.9958 43.5894 16.8768 42.6667 16.8768 41.1771H16.444ZM18.8221 47.2016L18.5161 47.5076L26.76 55.7515L27.066 55.4455L27.372 55.1395L19.1281 46.8956L18.8221 47.2016ZM27.066 55.4455L26.7687 55.7599C29.6832 58.5169 31.6197 60.8894 32.835 63.5709C34.0492 66.2499 34.5602 69.2741 34.5602 73.3603H34.9929H35.4257C35.4257 69.2025 34.9061 66.0438 33.6234 63.2136C32.3417 60.3859 30.3148 57.923 27.3634 55.1312L27.066 55.4455ZM34.9929 73.3603H34.5602V103.8H34.9929H35.4257V73.3603H34.9929ZM34.9929 103.8H34.5602C34.5602 108.806 33.3086 112.726 30.7939 115.393C28.2835 118.056 24.4499 119.538 19.1392 119.538V119.97V120.403C24.609 120.403 28.7023 118.873 31.4236 115.987C34.1407 113.105 35.4257 108.939 35.4257 103.8H34.9929ZM37.4453 1.22561V0.792858H37.0126V1.22561H37.4453ZM53.1406 1.22561L53.5716 1.18743L53.5367 0.792858H53.1406V1.22561ZM59.165 69.2383L58.7339 69.2765L59.5977 69.2363L59.165 69.2383ZM58.8479 1.22561V0.792858H58.4131L58.4152 1.22763L58.8479 1.22561ZM71.5309 1.22561H71.9637V0.792858H71.5309V1.22561ZM71.5309 119.178V119.61H71.9637V119.178H71.5309ZM57.104 119.178L56.6732 119.219L56.7109 119.61H57.104V119.178ZM49.8113 43.3967L50.242 43.3552L49.3785 43.3976L49.8113 43.3967ZM49.9698 119.178V119.61H50.4035L50.4026 119.177L49.9698 119.178ZM37.4453 119.178H37.0126V119.61H37.4453V119.178ZM37.4453 1.22561V1.65836H53.1406V1.22561V0.792858H37.4453V1.22561ZM53.1406 1.22561L52.7095 1.26379L58.7339 69.2765L59.165 69.2383L59.5961 69.2001L53.5716 1.18743L53.1406 1.22561ZM59.165 69.2383L59.5977 69.2363L59.2807 1.22359L58.8479 1.22561L58.4152 1.22763L58.7322 69.2403L59.165 69.2383ZM58.8479 1.22561V1.65836H71.5309V1.22561V0.792858H58.8479V1.22561ZM71.5309 1.22561H71.0982V119.178H71.5309H71.9637V1.22561H71.5309ZM71.5309 119.178V118.745H57.104V119.178V119.61H71.5309V119.178ZM57.104 119.178L57.5348 119.136L50.242 43.3552L49.8113 43.3967L49.3805 43.4381L56.6732 119.219L57.104 119.178ZM49.8113 43.3967L49.3785 43.3976L49.537 119.179L49.9698 119.178L50.4026 119.177L50.244 43.3958L49.8113 43.3967ZM49.9698 119.178V118.745H37.4453V119.178V119.61H49.9698V119.178ZM37.4453 119.178H37.8781V1.22561H37.4453H37.0126V119.178H37.4453ZM91.4151 81.7628V82.1956H91.8647L91.8475 81.7463L91.4151 81.7628ZM89.5126 31.9819L89.945 31.9654H89.0802L89.5126 31.9819ZM87.6101 81.7628L87.1777 81.7463L87.1605 82.1956H87.6101V81.7628ZM92.8419 119.178L92.4095 119.195L92.426 119.61H92.8419V119.178ZM91.8907 95.2385L92.3231 95.2213L92.3066 94.8058H91.8907V95.2385ZM86.976 95.2385V94.8058H86.5601L86.5436 95.2213L86.976 95.2385ZM86.0248 119.178V119.61H86.4407L86.4572 119.195L86.0248 119.178ZM72.7076 119.178L72.2757 119.15L72.2466 119.61H72.7076V119.178ZM80.1589 1.22561V0.792858H79.7526L79.727 1.19833L80.1589 1.22561ZM99.8176 1.22561L100.249 1.19659L100.222 0.792858H99.8176V1.22561ZM107.744 119.178V119.61H108.207L108.176 119.149L107.744 119.178ZM91.4151 81.7628L91.8475 81.7463L89.945 31.9654L89.5126 31.9819L89.0802 31.9985L90.9826 81.7793L91.4151 81.7628ZM89.5126 31.9819L89.0802 31.9654L87.1777 81.7463L87.6101 81.7628L88.0426 81.7793L89.945 31.9985L89.5126 31.9819ZM87.6101 81.7628V82.1956H91.4151V81.7628V81.3301H87.6101V81.7628ZM92.8419 119.178L93.2743 119.161L92.3231 95.2213L91.8907 95.2385L91.4583 95.2557L92.4095 119.195L92.8419 119.178ZM91.8907 95.2385V94.8058H86.976V95.2385V95.6713H91.8907V95.2385ZM86.976 95.2385L86.5436 95.2213L85.5924 119.161L86.0248 119.178L86.4572 119.195L87.4084 95.2557L86.976 95.2385ZM86.0248 119.178V118.745H72.7076V119.178V119.61H86.0248V119.178ZM72.7076 119.178L73.1395 119.205L80.5908 1.25289L80.1589 1.22561L79.727 1.19833L72.2757 119.15L72.7076 119.178ZM80.1589 1.22561V1.65836H99.8176V1.22561V0.792858H80.1589V1.22561ZM99.8176 1.22561L99.3858 1.25463L107.313 119.207L107.744 119.178L108.176 119.149L100.249 1.19659L99.8176 1.22561ZM107.744 119.178V118.745H92.8419V119.178V119.61H107.744V119.178ZM124.193 68.2871V67.8543H123.76V68.2871H124.193ZM124.193 119.178V119.61H124.625V119.178H124.193ZM108.815 119.178H108.382V119.61H108.815V119.178ZM108.815 1.22561V0.792858H108.382V1.22561H108.815ZM124.193 13.2745V12.8417H123.76V13.2745H124.193ZM124.193 55.7626H123.76V56.1954H124.193V55.7626ZM131.485 68.2871V67.8543H124.193V68.2871V68.7199H131.485V68.2871ZM124.193 68.2871H123.76V119.178H124.193H124.625V68.2871H124.193ZM124.193 119.178V118.745H108.815V119.178V119.61H124.193V119.178ZM108.815 119.178H109.247V1.22561H108.815H108.382V119.178H108.815ZM108.815 1.22561V1.65836H131.327V1.22561V0.792858H108.815V1.22561ZM131.327 1.22561V1.65836C134.421 1.65836 137.032 2.50847 138.87 4.32741C140.706 6.14492 141.833 8.99194 141.833 13.1159H142.266H142.699C142.699 8.83744 141.527 5.73929 139.479 3.71227C137.433 1.68667 134.574 0.792858 131.327 0.792858V1.22561ZM142.266 13.1159H141.833V56.3968H142.266H142.699V13.1159H142.266ZM142.266 56.3968H141.833C141.833 60.3579 140.709 63.2102 138.885 65.0711C137.062 66.932 134.488 67.8543 131.485 67.8543V68.2871V68.7199C134.666 68.7199 137.482 67.7397 139.503 65.6768C141.525 63.6139 142.699 60.521 142.699 56.3968H142.266ZM124.193 13.2745H123.76V55.7626H124.193H124.625V13.2745H124.193ZM124.193 55.7626V56.1954H125.302V55.7626V55.3299H124.193V55.7626ZM125.302 55.7626V56.1954C126.033 56.1954 126.654 55.9613 127.074 55.4105C127.475 54.884 127.638 54.1365 127.638 53.226H127.205H126.772C126.772 54.0594 126.618 54.5802 126.385 54.886C126.171 55.1676 125.84 55.3299 125.302 55.3299V55.7626ZM127.205 53.226H127.638V15.6525H127.205H126.772V53.226H127.205ZM127.205 15.6525H127.638C127.638 14.9567 127.608 14.237 127.276 13.7007C126.907 13.1045 126.25 12.8417 125.302 12.8417V13.2745V13.7072C126.099 13.7072 126.394 13.9201 126.54 14.1562C126.723 14.4522 126.772 14.9215 126.772 15.6525H127.205ZM125.302 13.2745V12.8417H124.193V13.2745V13.7072H125.302V13.2745ZM144.107 68.9213V68.4885H143.674V68.9213H144.107ZM159.326 68.9213H159.759V68.4885H159.326V68.9213ZM159.96 67.3359L160.266 67.0299L160.263 67.027L159.96 67.3359ZM151.558 59.0919L151.861 58.783L151.859 58.7811L151.558 59.0919ZM178.034 45.4577V45.8904H178.466V45.4577H178.034ZM163.29 45.4577H162.857V45.8904H163.29V45.4577ZM162.497 47.2016L162.179 47.4951L162.185 47.5015L162.191 47.5076L162.497 47.2016ZM170.741 55.4455L170.435 55.7517L170.444 55.7599L170.741 55.4455ZM162.814 119.97V119.538H159.326V119.97V120.403H162.814V119.97ZM159.326 119.97V119.538C154.313 119.538 150.634 118.362 148.207 116.088C145.787 113.818 144.539 110.384 144.539 105.702H144.107H143.674C143.674 110.532 144.963 114.233 147.615 116.719C150.263 119.201 154.193 120.403 159.326 120.403V119.97ZM144.107 105.702H144.539V68.9213H144.107H143.674V105.702H144.107ZM144.107 68.9213V69.354H159.326V68.9213V68.4885H144.107V68.9213ZM159.326 68.9213H158.893V104.592H159.326H159.759V68.9213H159.326ZM159.326 104.592H158.893C158.893 105.486 159.012 106.221 159.335 106.742C159.685 107.307 160.234 107.562 160.912 107.562V107.129V106.696C160.479 106.696 160.236 106.554 160.071 106.287C159.878 105.976 159.759 105.443 159.759 104.592H159.326ZM160.912 107.129V107.562C161.583 107.562 162.161 107.314 162.552 106.766C162.925 106.244 163.088 105.504 163.088 104.592H162.655H162.223C162.223 105.424 162.069 105.953 161.848 106.263C161.644 106.548 161.35 106.696 160.912 106.696V107.129ZM162.655 104.592H163.088V73.9945H162.655H162.223V104.592H162.655ZM162.655 73.9945H163.088C163.088 72.4055 163.011 71.264 162.603 70.2115C162.193 69.1547 161.468 68.231 160.266 67.0299L159.96 67.3359L159.654 67.6419C160.831 68.8188 161.453 69.639 161.796 70.5244C162.141 71.4139 162.223 72.4126 162.223 73.9945H162.655ZM159.96 67.3359L160.263 67.027L151.861 58.783L151.558 59.0919L151.255 59.4008L159.657 67.6448L159.96 67.3359ZM151.558 59.0919L151.859 58.7811C149.356 56.3567 147.652 53.9486 146.569 51.2421C145.486 48.5335 145.015 45.5003 145.015 41.8113H144.582H144.149C144.149 45.5735 144.63 48.7233 145.766 51.5635C146.903 54.4059 148.686 56.9125 151.257 59.4027L151.558 59.0919ZM144.582 41.8113H145.015V15.0184H144.582H144.149V41.8113H144.582ZM144.582 15.0184H145.015C145.015 10.6385 146.032 7.12089 148.362 4.69621C150.689 2.27468 154.4 0.865677 159.96 0.865677V0.432923V0.000169492C154.264 0.000169492 150.286 1.44484 147.738 4.09652C145.193 6.74504 144.149 10.5202 144.149 15.0184H144.582ZM159.96 0.432923V0.865677H163.448V0.432923V0.000169492H159.96V0.432923ZM163.448 0.432923V0.865677C169.008 0.865677 172.519 2.27474 174.647 4.5345C176.779 6.7989 177.601 9.99895 177.601 13.7501H178.034H178.466C178.466 9.89142 177.623 6.43288 175.277 3.94115C172.926 1.44478 169.144 0.000169492 163.448 0.000169492V0.432923ZM178.034 13.7501H177.601V45.4577H178.034H178.466V13.7501H178.034ZM178.034 45.4577V45.0249H163.29V45.4577V45.8904H178.034V45.4577ZM163.29 45.4577H163.722V14.3842H163.29H162.857V45.4577H163.29ZM163.29 14.3842H163.722C163.722 13.71 163.599 13.1147 163.249 12.6845C162.884 12.235 162.343 12.049 161.704 12.049V12.4818V12.9145C162.175 12.9145 162.427 13.0457 162.577 13.2303C162.743 13.4342 162.857 13.7902 162.857 14.3842H163.29ZM161.704 12.4818V12.049C161.066 12.049 160.525 12.235 160.16 12.6845C159.81 13.1147 159.686 13.71 159.686 14.3842H160.119H160.552C160.552 13.7902 160.666 13.4342 160.831 13.2303C160.981 13.0457 161.233 12.9145 161.704 12.9145V12.4818ZM160.119 14.3842H159.686V41.1771H160.119H160.552V14.3842H160.119ZM160.119 41.1771H159.686C159.686 42.6998 159.805 43.7588 160.194 44.7099C160.582 45.6587 161.223 46.4599 162.179 47.4951L162.497 47.2016L162.815 46.908C161.868 45.8823 161.32 45.1773 160.995 44.3822C160.671 43.5894 160.552 42.6667 160.552 41.1771H160.119ZM162.497 47.2016L162.191 47.5076L170.435 55.7515L170.741 55.4455L171.047 55.1395L162.803 46.8956L162.497 47.2016ZM170.741 55.4455L170.444 55.7599C173.358 58.5169 175.295 60.8894 176.51 63.5709C177.724 66.2499 178.235 69.2741 178.235 73.3603H178.668H179.101C179.101 69.2025 178.581 66.0438 177.298 63.2136C176.017 60.3859 173.99 57.923 171.038 55.1312L170.741 55.4455ZM178.668 73.3603H178.235V103.8H178.668H179.101V73.3603H178.668ZM178.668 103.8H178.235C178.235 108.806 176.983 112.726 174.469 115.393C171.958 118.056 168.125 119.538 162.814 119.538V119.97V120.403C168.284 120.403 172.377 118.873 175.098 115.987C177.816 113.105 179.101 108.939 179.101 103.8H178.668ZM180.962 119.178H180.529V119.61H180.962V119.178ZM180.962 1.22561V0.792858H180.529V1.22561H180.962ZM196.498 1.22561H196.931V0.792858H196.498V1.22561ZM196.498 49.4211H196.066V49.8539H196.498V49.4211ZM199.669 49.4211V49.8539H200.102V49.4211H199.669ZM199.669 1.22561V0.792858H199.236V1.22561H199.669ZM215.047 1.22561H215.48V0.792858H215.047V1.22561ZM215.047 119.178V119.61H215.48V119.178H215.047ZM199.669 119.178H199.236V119.61H199.669V119.178ZM199.669 65.4334H200.102V65.0007H199.669V65.4334ZM196.498 65.4334V65.0007H196.066V65.4334H196.498ZM196.498 119.178V119.61H196.931V119.178H196.498ZM180.962 119.178H181.394V1.22561H180.962H180.529V119.178H180.962ZM180.962 1.22561V1.65836H196.498V1.22561V0.792858H180.962V1.22561ZM196.498 1.22561H196.066V49.4211H196.498H196.931V1.22561H196.498ZM196.498 49.4211V49.8539H199.669V49.4211V48.9883H196.498V49.4211ZM199.669 49.4211H200.102V1.22561H199.669H199.236V49.4211H199.669ZM199.669 1.22561V1.65836H215.047V1.22561V0.792858H199.669V1.22561ZM215.047 1.22561H214.615V119.178H215.047H215.48V1.22561H215.047ZM215.047 119.178V118.745H199.669V119.178V119.61H215.047V119.178ZM199.669 119.178H200.102V65.4334H199.669H199.236V119.178H199.669ZM199.669 65.4334V65.0007H196.498V65.4334V65.8662H199.669V65.4334ZM196.498 65.4334H196.066V119.178H196.498H196.931V65.4334H196.498ZM196.498 119.178V118.745H180.962V119.178V119.61H196.498V119.178ZM252.691 18.3477H252.259V102.373H252.691H253.124V18.3477H252.691ZM252.691 102.373H252.259C252.259 108.007 250.772 112.287 248.076 115.156C245.383 118.02 241.427 119.538 236.362 119.538V119.97V120.403C241.602 120.403 245.811 118.829 248.706 115.748C251.598 112.672 253.124 108.153 253.124 102.373H252.691ZM236.362 119.97V119.538H234.142V119.97V120.403H236.362V119.97ZM234.142 119.97V119.538C228.838 119.538 224.845 117.98 222.173 115.098C219.497 112.212 218.087 107.933 218.087 102.373H217.654H217.222C217.222 108.069 218.666 112.589 221.538 115.687C224.416 118.79 228.667 120.403 234.142 120.403V119.97ZM217.654 102.373H218.087V18.3477H217.654H217.222V102.373H217.654ZM217.654 18.3477H218.087C218.087 12.776 219.344 8.41721 221.943 5.45465C224.533 2.50255 228.52 0.865677 234.142 0.865677V0.432923V0.000169492C228.35 0.000169492 224.093 1.69259 221.293 4.88382C218.502 8.06461 217.222 12.6632 217.222 18.3477H217.654ZM234.142 0.432923V0.865677H236.362V0.432923V0.000169492H234.142V0.432923ZM236.362 0.432923V0.865677C241.978 0.865677 245.925 2.57792 248.478 5.56908C251.041 8.57259 252.259 12.9343 252.259 18.3477H252.691H253.124C253.124 12.822 251.884 8.2263 249.136 5.0072C246.378 1.77575 242.161 0.000169492 236.362 0.000169492V0.432923ZM236.996 103.641H237.429V16.7623H236.996H236.563V103.641H236.996ZM236.996 16.7623H237.429C237.429 15.8485 237.264 15.079 236.903 14.5244C236.525 13.9455 235.953 13.6344 235.252 13.6344V14.0672V14.4999C235.662 14.4999 235.961 14.6645 236.178 14.9972C236.411 15.3542 236.563 15.9322 236.563 16.7623H236.996ZM235.252 14.0672V13.6344C234.552 13.6344 233.979 13.9455 233.602 14.5244C233.24 15.079 233.075 15.8485 233.075 16.7623H233.508H233.941C233.941 15.9322 234.094 15.3542 234.327 14.9972C234.543 14.6645 234.843 14.4999 235.252 14.4999V14.0672ZM233.508 16.7623H233.075V103.641H233.508H233.941V16.7623H233.508ZM233.508 103.641H233.075C233.075 104.553 233.239 105.293 233.612 105.815C234.003 106.363 234.581 106.61 235.252 106.61V106.178V105.745C234.814 105.745 234.52 105.596 234.316 105.312C234.094 105.001 233.941 104.473 233.941 103.641H233.508ZM235.252 106.178V106.61C235.923 106.61 236.501 106.363 236.892 105.815C237.265 105.293 237.429 104.553 237.429 103.641H236.996H236.563C236.563 104.473 236.41 105.001 236.188 105.312C235.985 105.596 235.691 105.745 235.252 105.745V106.178ZM261.157 119.178H260.724V119.61H261.157V119.178ZM261.157 15.3355H261.59V14.9027H261.157V15.3355ZM254.34 15.3355H253.907V15.7682H254.34V15.3355ZM254.34 1.22561V0.792858H253.907V1.22561H254.34ZM283.352 1.22561H283.785V0.792858H283.352V1.22561ZM283.352 15.3355V15.7682H283.785V15.3355H283.352ZM276.377 15.3355V14.9027H275.944V15.3355H276.377ZM276.377 119.178V119.61H276.809V119.178H276.377ZM261.157 119.178H261.59V15.3355H261.157H260.724V119.178H261.157ZM261.157 15.3355V14.9027H254.34V15.3355V15.7682H261.157V15.3355ZM254.34 15.3355H254.773V1.22561H254.34H253.907V15.3355H254.34ZM254.34 1.22561V1.65836H283.352V1.22561V0.792858H254.34V1.22561ZM283.352 1.22561H282.92V15.3355H283.352H283.785V1.22561H283.352ZM283.352 15.3355V14.9027H276.377V15.3355V15.7682H283.352V15.3355ZM276.377 15.3355H275.944V119.178H276.377H276.809V15.3355H276.377ZM276.377 119.178V118.745H261.157V119.178V119.61H276.377V119.178Z" fill="black" fill-opacity="0.2" style="fill:black;fill-opacity:0.2;"/>
<defs>
<linearGradient id="paint0_linear_1819_526" x1="284.478" y1="1.17752" x2="272.288" y2="142.679" gradientUnits="userSpaceOnUse">
<stop stop-color="#FFF100" style="stop-color:#FFF100;stop-color:color(display-p3 1.0000 0.9451 0.0000);stop-opacity:1;"/>
<stop offset="0.33" stop-color="#FF0000" style="stop-color:#FF0000;stop-color:color(display-p3 1.0000 0.0000 0.0000);stop-opacity:1;"/>
<stop offset="0.66" stop-color="#0C00FF" style="stop-color:#0C00FF;stop-color:color(display-p3 0.0471 0.0000 1.0000);stop-opacity:1;"/>
<stop offset="1" stop-color="#00FF00" style="stop-color:#00FF00;stop-color:color(display-p3 0.0000 1.0000 0.0000);stop-opacity:1;"/>
</linearGradient>
<linearGradient id="paint1_linear_1819_526" x1="141.164" y1="119.178" x2="141.164" y2="1.17773" gradientUnits="userSpaceOnUse">
<stop stop-color="#EAEAEA" style="stop-color:#EAEAEA;stop-color:color(display-p3 0.9186 0.9186 0.9186);stop-opacity:1;"/>
<stop offset="0.5" stop-color="white" stop-opacity="0.8" style="stop-color:white;stop-opacity:0.8;"/>
<stop offset="1" stop-color="#EAEAEA" style="stop-color:#EAEAEA;stop-color:color(display-p3 0.9176 0.9176 0.9176);stop-opacity:1;"/>
</linearGradient>
</defs>
</svg>

