<svg width="294" height="98" viewBox="0 0 294 98" fill="none" xmlns="http://www.w3.org/2000/svg">
<path d="M67.2259 50.6223C65.1595 62.3513 54.6141 71.4221 39.2955 71.4221H0.441406L13.0532 0.0488281H49.5597C64.7521 0.0488281 71.8728 8.50846 70.0684 18.4815C69.5153 21.7176 68.2096 24.7785 66.2566 27.4174C64.3035 30.0563 61.7578 32.1994 58.8245 33.6739C62.5692 35.3814 68.9721 40.6783 67.2259 50.6223ZM32.7956 16.3084L30.8553 27.5232H39.2179C40.8747 27.5796 42.4979 27.0474 43.7997 26.0209C45.1014 24.9945 45.9976 23.5401 46.3291 21.9158C46.882 18.7628 44.8641 16.3084 41.197 16.3084H32.7956ZM36.4724 55.0558C38.3287 55.1085 40.1441 54.5038 41.5979 53.3482C43.0516 52.1926 44.0504 50.5606 44.4179 48.7402C45.0484 45.1701 42.7977 42.3179 38.7134 42.3179H28.2068L26.0046 55.0558H36.4724Z" fill="white" style="fill:white;fill-opacity:1;"/>
<path d="M111.174 71.3733L102.646 49.9623H98.0573L94.2835 71.3733H71.6016L84.2134 0H118.362C134.855 0 143.693 10.6716 141.18 24.9811C139.647 33.6445 133.923 40.678 125.299 45.0631L136.058 71.3733H111.174ZM102.646 17.8409L100.046 32.6258H108.913C111.069 32.6947 113.176 31.9781 114.843 30.6093C116.51 29.2405 117.623 27.3128 117.974 25.1849C118.731 20.8969 116.209 17.8409 111.523 17.8409H102.646Z" fill="white" style="fill:white;fill-opacity:1;"/>
<path d="M200.433 0H222.562L209.951 71.3733H188.161L171.3 33.9549L164.703 71.3733H142.574L155.186 0H176.898L193.856 37.4183L200.433 0Z" fill="white" style="fill:white;fill-opacity:1;"/>
<path d="M221.402 71.3733L234.014 0H262.051C284.083 0 296.676 15.2894 293.096 35.6818C289.516 56.0741 271.5 71.3733 249.439 71.3733H221.402ZM247.538 51.4854H252.942C260.897 51.4854 268.813 44.7623 270.404 35.6818C271.995 26.6012 266.465 19.8782 258.51 19.8782H253.106L247.538 51.4854Z" fill="white" style="fill:white;fill-opacity:1;"/>
<path d="M208.114 81.293C213.926 81.293 216.983 82.7267 218.557 84.5449L217.47 81.5918H225.647L228.744 91.499L231.541 81.5918H239.976L242.772 91.5205L245.719 81.5918H286.648C290.641 81.5919 293.096 82.7234 293.097 85.627V85.8408C293.097 88.2322 290.962 89.129 289.638 89.4707C291.88 89.9191 293.161 91.3076 293.161 93.3574V95.748C293.161 96.6875 293.289 97.072 293.46 97.3496V97.4785H286.071C285.965 97.3718 285.922 97.1579 285.922 96.8379V94.9375C285.922 93.2293 285.111 92.2256 282.783 92.2256H277.68V97.4785H252.216V84.6162L247.428 97.4785H238.268L235.47 88.1045L232.694 97.4785H223.32L220.128 88.8096C220.132 88.9322 220.136 89.0531 220.136 89.1719V89.8125C220.136 92.9513 218.641 97.7773 208.114 97.7773H207.089C197.474 97.7773 195.408 93.7343 195.127 90.6426C194.045 91.9752 192.001 92.8662 188.476 92.8662H181.024V97.4785H173.828V81.5918H188.476C193.453 81.5918 195.461 83.2233 196.001 85.4736C197.301 83.2389 200.329 81.293 207.089 81.293H208.114ZM259.306 91.499V93.2285H270.484V91.499H259.306ZM207.602 85.9902C203.502 85.9902 202.52 87.7625 202.52 89.2998V89.5566C202.52 91.1153 203.609 93.0371 207.602 93.0371C211.594 93.0371 212.684 91.1574 212.684 89.5986V89.2998C212.683 87.7625 211.594 85.9902 207.602 85.9902ZM181.024 88.4248H187.046C188.305 88.4247 188.732 87.8902 188.732 87.207V87.165C188.732 86.4605 188.305 85.9474 187.046 85.9473H181.024V88.4248ZM277.68 88.04H284.064C285.26 88.04 285.688 87.5486 285.688 86.8867V86.8662C285.688 86.2043 285.26 85.7129 284.064 85.7129H277.68V88.04ZM259.306 85.7979V87.3564H270.484V85.7979H259.306Z" fill="white" style="fill:white;fill-opacity:1;"/>
<path d="M173.833 81.5918H0V97.4742H173.833V81.5918Z" fill="url(#paint0_linear_677_2642)" style=""/>
<defs>
<linearGradient id="paint0_linear_677_2642" x1="0" y1="89.5189" x2="173.833" y2="89.5189" gradientUnits="userSpaceOnUse">
<stop stop-color="#FFF100" style="stop-color:#FFF100;stop-color:color(display-p3 1.0000 0.9451 0.0000);stop-opacity:1;"/>
<stop offset="0.33" stop-color="#FF0000" style="stop-color:#FF0000;stop-color:color(display-p3 1.0000 0.0000 0.0000);stop-opacity:1;"/>
<stop offset="0.66" stop-color="#0C00FF" style="stop-color:#0C00FF;stop-color:color(display-p3 0.0471 0.0000 1.0000);stop-opacity:1;"/>
<stop offset="1" stop-color="#00FF00" style="stop-color:#00FF00;stop-color:color(display-p3 0.0000 1.0000 0.0000);stop-opacity:1;"/>
</linearGradient>
</defs>
</svg>

